<?xml version="1.0" encoding="UTF-8"?>
<svg xmlns="http://www.w3.org/2000/svg" viewBox="0 0 1000 360">
  <defs>
    <style>
      .cls-1 {
        fill: #feffff;
      }

      .cls-1, .cls-2, .cls-3, .cls-4, .cls-5, .cls-6, .cls-7, .cls-8, .cls-9, .cls-10, .cls-11, .cls-12, .cls-13, .cls-14, .cls-15, .cls-16, .cls-17, .cls-18, .cls-19, .cls-20, .cls-21, .cls-22, .cls-23, .cls-24, .cls-25, .cls-26, .cls-27, .cls-28, .cls-29, .cls-30, .cls-31, .cls-32, .cls-33, .cls-34, .cls-35 {
        stroke-width: 0px;
      }

      .cls-2 {
        fill: #e99e43;
      }

      .cls-3 {
        fill: #e27d51;
      }

      .cls-4 {
        fill: #a72a2e;
      }

      .cls-5 {
        fill: #f8e8aa;
      }

      .cls-6 {
        fill: #e2754a;
      }

      .cls-7 {
        fill: #ca8a64;
      }

      .cls-8 {
        fill: #f39231;
      }

      .cls-9 {
        fill: #e58378;
      }

      .cls-10 {
        fill: #f3cf54;
      }

      .cls-11 {
        fill: #d1615f;
      }

      .cls-12 {
        fill: #311b1e;
      }

      .cls-13 {
        fill: #e7f1f0;
      }

      .cls-14 {
        fill: #a42b30;
      }

      .cls-15 {
        fill: #f1b291;
      }

      .cls-16 {
        fill: #f3e4a1;
      }

      .cls-17 {
        fill: #f4d2c9;
      }

      .cls-18 {
        fill: #a62a34;
      }

      .cls-19 {
        fill: #d34030;
      }

      .cls-20 {
        fill: #cf4332;
      }

      .cls-21 {
        fill: #ebbf92;
      }

      .cls-22 {
        fill: #f8d158;
      }

      .cls-23 {
        fill: #eaa548;
      }

      .cls-24 {
        fill: #a7bbbc;
      }

      .cls-25 {
        fill: #2f1e26;
      }

      .cls-26 {
        fill: #f4a886;
      }

      .cls-27 {
        fill: #718387;
      }

      .cls-28 {
        fill: #2d1d1e;
      }

      .cls-29 {
        fill: #e99c40;
      }

      .cls-30 {
        fill: #f8ad47;
      }

      .cls-31 {
        fill: #c96e28;
      }

      .cls-32 {
        fill: #da752f;
      }

      .cls-33 {
        fill: #fbe9c1;
      }

      .cls-34 {
        fill: #f8d057;
      }

      .cls-35 {
        fill: #5b5e65;
      }

      .logo-text {
        font-family: "American Typewriter", "Courier New", Courier, monospace;
        font-size: 160px;
        font-weight: 400;
        fill: #311b1e;
      }
    </style>
  </defs>

  <!-- Original logo -->
  <g transform="translate(0, 0)">
    <path class="cls-12" d="M189.43,61.51c7.86,1.44,37.58,8.82,56.06,40.26.26.45.89.5,1.21.09l6.52-8.43c7.15-9.25,20.67-10.45,29.35-2.61l7.46,6.75c6.81,6.16,7.87,16.46,2.46,23.88l-27.82,38.18c-.4.55-.49,1.25-.23,1.88,4.25,10.43,38.05,100.04-45.31,126.37,0,0,6.95,3.28,10.63,5.09,4.99,2.46,6.28,16.14-8.24,13.89,0,0-6.23,16.6-18.51-1.44,0,0-10.61,8.36-14.87-2.82,0,0-1.96-4.27,3.52-8.71,0,0-22.51,1.82-30.99.52-1.2-.18-2.42.03-3.48.64l-35.47,20.25c-1.08.62-2.39.81-3.56.37-1.54-.58-3.1-2.25-2.43-6.79,0,0-8.24,3.75-9.17-6.51,0,0-6.62,2.33-9.58-4.22-1.25-2.77-.82-6.08,1.26-8.3s6.06-4.57,13.68-5.98c0,0-29.15-12.51-39.61-36.95-10.45-24.44-9.84-41.66-4.46-63.49,0,0,8.76-27.36,11.07-43.51,2.3-16.1,14.23-57.11,57.28-74.72.2-.08.34-.29.31-.51-.22-1.91-.41-10.73,15.36-10.11.22,0,.4-.2.32-.41-.73-2.02-3.06-10.36,8.7-10.06,0,0,13.16.07,25.38,15.56.78.99,1.9,1.63,3.14,1.86Z"/>
    <path class="cls-32" d="M212.14,291.56c2.9,1.24,9.6,4.14,12.6,5.68.93.48,1.66,1.32,1.87,2.34.27,1.3-.22,2.69-4.39,1.54l-9.49-4.34s.03,1.61,1.86,5.74c.42.96.67,2.01.65,3.06-.01.81-.19,1.59-.78,1.77-1.35.42-3.15.19-7.42-6.42l-2.15-3s-3.65,2.38-6.23,3.27-4.34,1.27-4.65-.19,4.46-6.96,8.53-8.15c3.39-.99,5-.68,6.98-1.35.86-.29,1.78-.31,2.62.05Z"/>
    <path class="cls-32" d="M120.4,288.16l-2.47,11.43c-.27,1.26-.96,2.39-1.95,3.22-1.17.97-2.62,1.84-3,.54-.56-1.93,2.05-7.32,2.85-8.9.08-.17-.07-.35-.25-.29-2.07.64-10.32,3.12-12.1,2.31-2.04-.92-1.38-2.88,1.65-3.96,3.04-1.08,10.49-3.38,12.84-4.54.76-.37,1.29-.54,1.66-.61.46-.08.85.34.75.79Z"/>
    <path class="cls-34" d="M115.97,190.28c.14.22.33.46.55.69h0c4.3,5.04,20.02,12.49,34.11,15.75,14.75,3.4,19.82,3.16,22.66,7.84.8,1.31.42,2.91-.72,4.57-1.53,2.29-4.46,4.69-7.67,6.59-2.78,1.66-5.78,2.95-8.27,3.48-2.86.6-4.3.89-5.02,1.03-.47.09-.73.63-.5,1.05.97,1.76,5.27,1.69,6.81,1.59.27-.01.5.25.42.51-2.44,8-24.11,8.32-35.73,5.5-10.38-2.51-20.35-10.7-22.71-12.74-.31-.26-.81-.27-1.07.05-.69.86-.3,2.25.37,3.54.3.59.67,1.18,1.01,1.66.63.91,1.19,1.55,1.19,1.55,13.22,14.96,32.98,14.44,35.59,14.41.1,0,.17.13.09.22l-10.21,13.47c-.76,1.01-1.28,2.16-1.54,3.4l-3.18,15.25c-.05.22-.26.35-.48.29-3.15-.91-24.38-7.74-37.88-28.33-2.47-3.76-4.42-7.19-5.95-10.34-7.61-15.56-5.31-24.53-6.19-34.25-.26-2.82-.13-5.85.27-8.99,1.27-9.81,5.19-20.55,7.87-28.36,3.54-10.31,6.46-31.98,9.54-42.74,3.07-10.75,9.84-25.1,23.13-38.01,11.94-11.59,26.24-16.9,29.04-17.86.16-.05.29.13.2.27-1.25,2-1.29,4.16-1.16,5.42.07.68.18,1.1.18,1.1,3.92,8.15,14.37,4.12,17.68,1.42s1.27-3.11.16-2.5c-.71.39-4.55,1.69-7.77,1.71-1.91.01-3.61-.41-4.34-1.71-1.4-2.52,1.25-4.48,3.29-6.21.82-.69,1.54-1.35,1.86-1.99.93-1.83-1.39-2.67-3.89-3.32-.55-.14-1.1-.27-1.63-.41-1.86-.44-2.56-1.07-2.84-1.49-.13-.21-.13-.5.04-.69,1.16-1.44,3.11-2.22,5.33-2.57,4.39-.74,9.84.1,12.41.54,3.96.65,3.07-1.89,2.29-2.61-.71-.67-2.93-1.89-4.02-3.5-.12-.16-.22-.33-.3-.5-.56-1.14-.97-2.04-1.2-2.57-.16-.35-.05-.8.29-.98,1.96-1.08,7.57.46,7.57.46,7.36,3.08,12.06,7.21,14.84,10.41,1.12,1.27,1.93,2.39,2.5,3.23.9,1.39,2.2,2.46,3.7,3.11,3.55,1.55,7.94,2.52,7.94,2.52,26.87,6.66,43.63,31.71,47.12,37.37.42.68.38,1.54-.1,2.18l-70.84,94.61c-.24.31-.61.46-.99.38-3.2-.65-18.35-3.82-29.88-7.2-12.96-3.8-18.22-9.11-21.33-9.57-3.11-.46-2.6,2.25-2.6,2.25Z"/>
    <path class="cls-2" d="M267.18,226.24c-2.91,12.15-5.53,22.29-18.52,36.13-12.99,13.84-35.44,21.06-45.81,22.75-10.24,1.67-22.68,3.14-35.29,2.27-.22-.01-.34-.26-.21-.44l36.91-49.18c.16-.21.46-.25.65-.09,2.54,2.13,18.29,14.3,36.25,5.72.89-.42,1.69-1.01,2.31-1.75.64-.78,1.14-1.79.52-2.7-.31-.5-.93-.72-1.5-.61-.88.14-2.68.51-6.27,1.39-5.08,1.25-15.41-.65-21.6-3.65-6.09-2.95-20.02-11.77-18.53-21.94.04-.22.29-.33.46-.2,1.55,1.18,7.55,5.53,12.22,5.79.1,0,.16-.13.08-.2-1.32-1.08-7.45-6.32-11.05-12.98-.42-.74-.8-1.53-1.14-2.31-.65-1.54-1.15-3.12-1.4-4.74,0,0-1.61-6.19,3.4-7.42.9-.22,1.84-.18,2.77-.01,1.58.27,4.61,1.01,9.92,2.94,8.95,3.27,20.75,5,29.17,4.08,2.77-.3,4.81-.88,6.14-1.52,1.35-.65,1.99-1.39,1.93-2-.03-.61-.77-1.12-2.16-1.29l-7.29-.24c-.3-.01-.46-.35-.29-.59l19.31-26.21c.17-.24.54-.17.63.1.97,2.95,4.94,15.13,6.55,20.79,1.84,6.46,4.77,25.98,1.84,38.12Z"/>
    <path class="cls-21" d="M159.13,286.65l-23.13,13.84c-.21.12-.47.04-.56-.2-.3-.77-1.08-2.44-2.57-3.96-1.1-1.14-2.59-2.17-4.56-2.72-.77-.22-1.62-.35-2.55-.39-.27-.01-.48-.26-.42-.52l5.74-25.51c.16-.68.68-1.22,1.36-1.37.47-.12,1.06-.18,1.72-.1,1.46.17,2.65,1.12,3.21,2.42.24.52.35,1.11.35,1.72-.01.33-.04.67-.09,1.03-.37,2.63,1.86,3.18,3.84,2.48,1.99-.69,4.09-1.27,5.91.38,1.75,1.58,2.2,3.97,2.46,6.72.01.09.01.2.03.29,0,0,.14,1.99,3.23,1.63,2.9-.31,4.98-1.06,6.47,3.01.17.47,0,1.01-.43,1.25Z"/>
    <path class="cls-35" d="M124.7,297.63l-2.11,9.5c-.01.06.07.1.11.04l5.09-8.6c.21-.36.08-.81-.28-1.02-.46-.26-1.16-.52-2.09-.5-.34.01-.64.24-.72.57Z"/>
    <path class="cls-4" d="M268.88,142.11l-37.79,50.44c-.26.34-.68.52-1.11.48-1.41-.16-4.97-.64-10.35-2.05l43.3-57.04c2.04,1.96,4.05,4.14,5.93,6.53.37.47.38,1.15.01,1.63Z"/>
    <path class="cls-6" d="M251.5,124.94l-27.38,37.28-18.46,24.44c-3.4-1.03-5.84-1.42-8.31-.67l48.24-64.5c1.59.84,3.63,1.97,5.91,3.45Z"/>
    <path class="cls-24" d="M276.89,130.83l-3.15,4.95c-.22.35-.74.38-.99.04-.9-1.22-2.98-3.87-6.22-7.02-3.48-3.42-8.28-7.44-14.43-10.95-1.65-.95-3.4-1.87-5.24-2.73-.56-.26-.76-.97-.38-1.46l2.98-4.01c.26-.37.74-.5,1.15-.33,1.01.42,3.02,1.32,5.62,2.77,4.06,2.26,9.55,5.89,14.77,11.15,2.03,2.04,4.02,4.34,5.88,6.9.14.21.16.48.01.69Z"/>
    <path class="cls-9" d="M286.76,118.08l-5.04,7.36c-.25.35-.74.37-1.01.03-.91-1.24-3.04-3.97-6.25-7.17-4.12-4.18-10.01-9.15-17.25-12.62-.9-.44-1.83-.85-2.78-1.24-.37-.14-.5-.59-.27-.91l4.35-6.27c3.65-5.24,10.87-6.51,16.09-2.81l4.87,3.48,2.9,2.06,1.35.95c5.53,3.93,6.89,11.56,3.04,17.16Z"/>
    <path class="cls-16" d="M180.46,61.4c-12.74-9.23-18.79-8.17-21.19-6.82-.12-.16-.22-.33-.3-.5-.56-1.14-.97-2.04-1.2-2.57-.16-.35-.05-.8.29-.98,1.96-1.08,7.57.46,7.57.46,7.36,3.08,12.06,7.21,14.84,10.41Z"/>
    <path class="cls-16" d="M147.68,65.32c-.55-.14-1.1-.27-1.63-.41-1.86-.44-2.56-1.07-2.84-1.49-.13-.21-.13-.5.04-.69,1.16-1.44,3.11-2.22,5.33-2.57,2.13.67,4.66,1.67,5.63,2.94,1.41,1.84-3.75,1.71-6.53,2.22Z"/>
    <path class="cls-16" d="M150.77,78.54c-1.91.01-3.61-.41-4.34-1.71-1.4-2.52,1.25-4.48,3.29-6.21-.63,1.22-1.37,2.89-1.48,4.06-.16,1.78-.3,3.03,2.52,3.85Z"/>
    <path class="cls-16" d="M172.56,219.13c-2.22-7.33-14.71-6.64-14.71-6.64-15.99-1.07-26.91-7.3-35.36-13.52-4.94-3.63-5.97-6.36-5.97-7.98,4.3,5.03,20.02,12.48,34.11,15.73,14.75,3.4,19.82,3.16,22.66,7.84.8,1.31.42,2.91-.72,4.57Z"/>
    <path class="cls-16" d="M158.33,233.37c-2.44,8-24.11,8.32-35.73,5.5-10.38-2.51-20.35-10.7-22.71-12.74-.31-.26-.81-.27-1.07.05-.69.86-.3,2.25.37,3.54-3.23-4.1-3.93-10.05-2.78-13.47,1.62-4.78,6.57,1.67,12.81,6.47,6.22,4.78,17.43,6.72,17.43,6.72,13.15,3.99,31.15-1.28,38.25-3.72-2.78,1.66-5.78,2.95-8.27,3.48-2.86.6-4.3.89-5.02,1.03-.47.09-.73.63-.5,1.05.97,1.76,5.27,1.69,6.81,1.59.27-.01.5.25.42.51Z"/>
    <path class="cls-29" d="M137.07,247.58l-10.21,13.47c-.76,1.01-1.28,2.16-1.54,3.4l-3.18,15.25c-.05.22-.26.35-.48.29-3.15-.91-24.38-7.74-37.88-28.33-2.47-3.76-4.42-7.19-5.95-10.34-7.61-15.56-5.31-24.53-6.19-34.25-.26-2.82-.13-5.85.27-8.99,4.91,51.43,54.01,61.94,54.01,61.94l.57-5.02s-12.39-5.31-19.89-12.79c-4.68-4.68-6.05-8.56-6.42-10.82.63.91,1.19,1.55,1.19,1.55,13.22,14.96,32.98,14.44,35.59,14.41.1,0,.17.13.09.22Z"/>
    <path class="cls-16" d="M141.68,71.38c-1.25,2-1.29,4.16-1.16,5.42-4.36,2.35-13.09,7.12-17.08,10-5.41,3.92-20.71,18.31-25.55,33.27-4.85,14.95-4.73,14.71-7.96,31.54-3.23,16.84-7.27,25.83-9.46,31.14-1.79,4.35-9.66,30.71-2.64,58.57-7.61-15.56-5.31-24.53-6.19-34.25-1.08-11.68,4.61-27.05,8.14-37.35,3.54-10.31,6.46-31.98,9.54-42.74,3.07-10.75,9.84-25.1,23.13-38.01,11.94-11.59,26.24-16.9,29.04-17.86.16-.05.29.13.2.27Z"/>
    <path class="cls-10" d="M195.64,264.72l12.45-16.45s7.76,5.3,14.68,5.61c0,0-8.92,7.46-27.13,10.84Z"/>
    <path class="cls-22" d="M257.37,208.11c-.46,14.3-12.83,23.68-27.44,23.44-14.61-.24-19.68-8.91-19.68-8.91,0,0,4.85.14,4.3-1.92,0,0-9.75-4.47-16.75-14.18-.42-.74-.8-1.53-1.14-2.31-.65-1.54-1.15-3.12-1.4-4.74,0,0-1.61-6.19,3.4-7.42.9-.22,1.84-.18,2.77-.01,1.58.27,4.61,1.01,9.92,2.94,8.95,3.27,20.75,5,29.17,4.08,2.77-.3,4.81-.88,6.14-1.52,1.35-.65,1.99-1.39,1.93-2,.67-.6,1.24-1.43,1.61-2.58.18-.58.85-.87,1.37-.56,2.04,1.19,6.15,4.92,5.8,15.7Z"/>
    <path class="cls-5" d="M246.65,197.56c-3.02,8.28-20.27,5.85-30.04,3.99-1.61-.31-3.02-.63-4.27-.94-6.7-1.71-8.78-3.31-12.27-2.23-1.99.6-2.94,3.25-3.41,5.87-.55-1.31-.99-2.64-1.25-4-.07-.25-.1-.5-.14-.74,0,0-1.61-6.19,3.4-7.42.9-.22,1.84-.18,2.77-.01.04.01.08.01.13.03,1.61.29,4.63,1.03,9.79,2.91,1.35.5,2.74.94,4.19,1.37,8.22,2.35,17.82,3.49,24.97,2.7,2.77-.3,4.81-.88,6.14-1.52Z"/>
    <path class="cls-28" d="M171.9,157.41c-.48.77-1.2,1.75-2.1,2.82-3.28,3.89-8.95,9.08-14.44,10.47-1.52.38-3.08.31-4.6-.08-1.99-.51-5.1-1.58-8.78-4.14-2.85-2-6.04-4.89-9.32-9.12-.88-1.12-1.03-2.65-.35-3.89,1.33-2.43,4.59-6.61,12.37-11.34,0,0,2.93-2.61,7.46-2.54,4.53.08,8,1.92,17.3,10.14,0,0,4.91,3.76,2.46,7.68Z"/>
    <path class="cls-23" d="M169.79,160.24c-1.54,5.62-7.98,10.69-9.93,11.96-2.3,1.5-6.22,3.78-12.02.69-3.36-1.78-5.04-4.46-5.87-6.4,3.68,2.56,6.79,3.63,8.78,4.14,1.52.39,3.08.46,4.6.08,5.49-1.39,11.16-6.57,14.44-10.47Z"/>
    <path class="cls-17" d="M279.46,97.91c-5.96-2.31-9.68-2.73-13.15-1.71-2.82.84-6.78,6.08-9.11,9.47-.9-.44-1.83-.85-2.78-1.24-.37-.14-.5-.59-.27-.91l4.35-6.27c3.65-5.24,10.87-6.51,16.09-2.81l4.87,3.48Z"/>
    <path class="cls-11" d="M286.76,118.08l-5.04,7.36c-.25.35-.74.37-1.01.03-.91-1.24-3.04-3.97-6.25-7.17,6.38-6.06,7.54-7.88,8.69-12.22.65-2.44,0-4.61-.78-6.1l1.35.95c5.53,3.93,6.89,11.56,3.04,17.16Z"/>
    <path class="cls-13" d="M256.23,112.1l-4.13,5.76c-1.65-.95-3.4-1.87-5.24-2.73-.56-.26-.76-.97-.38-1.46l2.98-4.01c.26-.37.74-.5,1.15-.33,1.01.42,3.02,1.32,5.62,2.77Z"/>
    <path class="cls-27" d="M276.89,130.83l-3.15,4.95c-.22.35-.74.38-.99.04-.9-1.22-2.98-3.87-6.22-7.02,1.35-1.36,3.5-3.7,4.47-5.57,2.03,2.04,4.02,4.34,5.88,6.9.14.21.16.48.01.69Z"/>
    <path class="cls-26" d="M245.59,121.49l-48.24,64.5c-.64.2-1.27.47-1.92.82-2.18,1.2-3.93,3.07-5.1,5.27-.94,1.78-1.84,4.18-1.79,6.78l-9.21,13.64c-.41-1.69-1.31-3.24-2.6-4.44l-.05-.05c-.3-.27-.35-.71-.12-1.03l64.84-86.4c.35-.48.99-.65,1.53-.41.63.29,1.53.72,2.67,1.32Z"/>
    <g>
      <path class="cls-18" d="M199.1,233.95l-35.5,47.97c-.14.18-.43.17-.54-.04-.72-1.29-3.14-4.93-7.91-4.69-.29.01-.56-.09-.74-.29l38.94-51.3c2.35,3.83,4.6,6.14,5.63,7.12.35.31.39.84.12,1.23Z"/>
      <path class="cls-3" d="M190.83,206.28l-46.24,61.21c-.59.01-1.2.08-1.86.2-.37.07-.73-.14-.81-.51-.22-1.07-.91-3.21-2.93-4.76l14.5-17.84c5.12-1.91,10.94-5.34,11.92-11.34.1-.57.44-1.08.99-1.32,3.18-1.36,13.97-6.82,13.16-17.93-.04-.51-.12-1.01-.24-1.49l9.21-13.64c0,.38.03.76.07,1.15.12.9.41,1.76.73,2.6l1.44,3.52c.01.05.04.1.05.16Z"/>
      <path class="cls-15" d="M153.5,244.58l-14.5,17.84c-.86-.67-1.99-1.22-3.41-1.5-.27-.05-.41-.37-.25-.6l9.4-12.78c.39-.54.98-.89,1.63-1.01,1.42-.26,4.17-.85,7.13-1.95Z"/>
      <path class="cls-20" d="M193.35,225.6l-38.94,51.3c-.17-.14-.29-.37-.33-.61-.39-2.55-2.1-9.08-9.5-8.79l46.24-61.21c.17.52.14,1.1-.07,1.61-.84,2.1-2.57,7.87.54,14.06.67,1.35,1.36,2.55,2.05,3.65Z"/>
    </g>
    <path class="cls-19" d="M262.93,133.94l-43.3,57.04c-1.88-.48-4.01-1.1-6.35-1.84-3.06-.99-5.51-1.86-7.62-2.48l18.46-24.44,27.38-37.28c3.48,2.23,7.51,5.21,11.43,9Z"/>
    <path class="cls-14" d="M170.6,236.38c-2.54,6-10.98,9.38-10.98,9.38l-3.78,2c-6.18,2.48-10.11,2.22-12.39,1.49l1.27-1.71c.39-.54.98-.89,1.63-1.01,1.42-.26,4.17-.85,7.13-1.95,5.12-1.91,10.94-5.34,11.92-11.34.1-.57.44-1.08.99-1.32,2.9-1.24,12.15-5.91,13.11-15.17,2.25,12.56-8.91,19.63-8.91,19.63Z"/>
    <path class="cls-33" d="M137.37,268.13l-9.07,25.48c-.77-.22-1.62-.35-2.55-.39-.27-.01-.48-.26-.42-.52l5.74-25.51c.16-.68.68-1.22,1.36-1.37.47-.12,1.06-.18,1.72-.1,1.46.17,2.65,1.12,3.21,2.42Z"/>
    <path class="cls-7" d="M159.13,286.65l-23.13,13.84c-.21.12-.47.04-.56-.2-.3-.77-1.08-2.44-2.57-3.96l16.97-15.86c.01.09.01.2.03.29,0,0,.14,1.99,3.23,1.63,2.9-.31,4.98-1.06,6.47,3.01.17.47,0,1.01-.43,1.25Z"/>
    <ellipse class="cls-25" cx="119.82" cy="137.27" rx="9.74" ry="12.33"/>
    <ellipse class="cls-25" cx="191.53" cy="139.26" rx="9.34" ry="12.01"/>
    <ellipse class="cls-1" cx="121.7" cy="132.91" rx="3.51" ry="2.95" transform="translate(-26.38 235.6) rotate(-82.26)"/>
    <ellipse class="cls-1" cx="191.9" cy="134.54" rx="3" ry="2.71" transform="translate(32.74 306.57) rotate(-82.26)"/>
    <path class="cls-31" d="M143.64,160.57s6.05,5.48,9.34,5.94,9.48-5.71,10.3-6.69c0,0-9.44,4.04-19.64.75Z"/>
    <g>
      <path class="cls-8" d="M165.85,154.41c-2.16,1.07-10.26,4.56-20.8,2.4-2.03-.42-4.14-1.03-6.32-1.92h-.01c-.13-.05-.27-.12-.41-.17-.3-.13-.41-.51-.2-.76,1.72-2.09,8.61-9.94,14.13-9.59.07,0,.13.01.2.01.39.04.78.09,1.16.16,5.4,1.06,9.6,6.09,12.39,9.11.22.25.16.61-.13.76Z"/>
      <path class="cls-30" d="M153.6,144.54c-1.02,1.03-2.4,2.54-2.78,3.48-.64,1.55-2.82,2.94-4.61,4.44-1.1.91-1.22,2.93-1.15,4.35-2.03-.42-4.14-1.03-6.32-1.92h-.01c-.13-.05-.27-.12-.41-.17-.3-.13-.41-.51-.2-.76,1.72-2.09,8.61-9.94,14.13-9.59.07,0,.13.01.2.01.39.04.78.09,1.16.16Z"/>
      <path class="cls-16" d="M152.43,144.39c-1.42.64-2.6,1.67-3.33,2.43-.21.34-.47.77-.81,1.31-2.26,3.58-6.7,5.71-9.57,6.77h-.01c-.13-.05-.27-.12-.41-.17-.3-.13-.41-.51-.2-.76,1.72-2.09,8.61-9.94,14.13-9.59.07,0,.13.01.2.01Z"/>
    </g>
  </g>

  <!-- Text -->
  <text x="340" y="245" class="logo-text">Scratch</text>
</svg>
